<?xml version="1.0"?>
<svg xmlns="http://www.w3.org/2000/svg" xmlns:xlink="http://www.w3.org/1999/xlink" xmlns:svgjs="http://svgjs.com/svgjs" version="1.1" width="71" height="61" x="0" y="0" viewBox="0 0 511.999 511.999" style="enable-background:new 0 0 512 512" xml:space="preserve" class=""><g>
<g xmlns="http://www.w3.org/2000/svg">
	<g>
		<path d="M358.561,457.396l-0.366-0.061c-5.446-0.912-10.602,2.766-11.513,8.213c-0.094,0.559-0.139,1.114-0.139,1.662    c0,4.798,3.463,9.034,8.352,9.851l0.366,0.061c0.558,0.093,1.114,0.139,1.662,0.139c4.797,0,9.033-3.464,9.851-8.353    c0.094-0.558,0.139-1.113,0.139-1.662C366.913,462.45,363.449,458.214,358.561,457.396z" fill="#ffc600" data-original="#000000" style=""/>
	</g>
</g>
<g xmlns="http://www.w3.org/2000/svg">
	<g>
		<path d="M165.319,465.548c-0.911-5.446-6.066-9.126-11.513-8.213l-0.366,0.061c-4.889,0.818-8.352,5.053-8.352,9.85    c0,0.549,0.045,1.103,0.139,1.662c0.817,4.89,5.052,8.353,9.85,8.353c0.548,0,1.104-0.046,1.663-0.139l0.366-0.061    c4.889-0.818,8.352-5.053,8.352-9.851C165.458,466.662,165.412,466.107,165.319,465.548z" fill="#ffc600" data-original="#000000" style=""/>
	</g>
</g>
<g xmlns="http://www.w3.org/2000/svg">
	<g>
		<path d="M431.945,331.477c5.984,0,11.918-1.052,17.778-3.158c40.284-14.477,60.906-75.191,61.764-77.768    c0.967-2.906,0.55-6.095-1.132-8.653c-1.682-2.559-4.444-4.205-7.495-4.469c-31.036-2.677-56.358,2.375-75.411,15.032    c1.529-10.147,2.405-19.897,2.819-29.045c0.161,0.001,0.321,0.002,0.482,0.002c13.876,0,25.803-4.51,35.547-13.462    c28.963-26.609,26.358-83.732,26.233-86.151c-0.163-3.152-1.805-6.042-4.429-7.797c-2.624-1.753-5.923-2.165-8.897-1.112    c-27.731,9.826-44.361,23.576-54.281,37.192c-1.333-6.851-2.66-12.361-3.675-16.226c7.949-11.583,10.763-23.904,8.364-36.723    c-6.809-36.394-55.073-62.169-57.124-63.249c-2.72-1.432-5.946-1.532-8.75-0.274c-2.804,1.258-4.874,3.734-5.614,6.717    c-7.322,29.521-4.977,54.121,6.972,73.114c11.833,18.811,29.732,26.339,37.664,28.872c2.523,10.33,6.344,29.237,7.483,52.645    c-21.925-25.725-55.71-40.801-56.134-40.927c-2.708-0.807-5.63-0.43-8.047,1.035c-2.415,1.467-4.098,3.888-4.63,6.663    c-6.861,35.741-2.566,64.902,12.764,86.675c15.307,21.738,37.148,29.346,46.218,31.672c-0.686,2.287-12.721,33.497-19.114,44.586    c-8.203-40.271-50.678-75.568-52.683-77.213c-2.388-1.961-5.549-2.705-8.563-2.021c-3.013,0.686-5.54,2.726-6.846,5.526    c-15.867,34.04-18.936,64.425-9.121,90.31c7.424,19.58,20.649,32.073,30.416,39.098c-13.439,11.444-28.618,21.776-45.51,30.978    c3.003-6.786,5.007-14.312,5.007-22.313c0-31.259-30.581-55.266-31.883-56.272c-3.603-2.785-8.632-2.785-12.234,0    C248.581,335.767,218,359.773,218,391.032c0,8.001,2.004,15.526,5.007,22.313c-16.892-9.202-32.072-19.534-45.511-30.978    c9.767-7.026,22.992-19.518,30.416-39.099c9.815-25.886,6.746-56.27-9.121-90.31c-1.306-2.801-3.833-4.841-6.846-5.526    c-3.013-0.684-6.174,0.061-8.563,2.021c-2.005,1.645-44.48,36.942-52.683,77.213c-6.393-11.09-18.428-42.299-19.114-44.586    c9.07-2.326,30.911-9.934,46.218-31.672c15.33-21.772,19.624-50.934,12.764-86.675c-0.533-2.775-2.215-5.196-4.63-6.663    c-2.415-1.465-5.34-1.842-8.047-1.035c-0.423,0.126-34.208,15.201-56.134,40.927c1.14-23.41,4.96-42.316,7.484-52.645    c7.932-2.534,25.831-10.061,37.664-28.872c11.948-18.993,14.294-43.593,6.972-73.114c-0.74-2.982-2.81-5.459-5.614-6.717    c-2.803-1.258-6.03-1.157-8.749,0.274c-2.051,1.08-50.315,26.856-57.124,63.249c-2.399,12.819,0.414,25.141,8.364,36.723    c-1.015,3.865-2.342,9.375-3.675,16.226c-9.92-13.616-26.55-27.365-54.281-37.192c-2.974-1.055-6.274-0.642-8.897,1.112    c-2.624,1.755-4.266,4.645-4.429,7.797c-0.125,2.419-2.73,59.542,26.233,86.151c9.745,8.953,21.669,13.462,35.547,13.462    c0.16,0,0.321-0.001,0.481-0.002c0.414,9.148,1.29,18.897,2.819,29.045C65.498,239.802,40.18,234.748,9.14,237.428    c-3.051,0.264-5.813,1.91-7.495,4.469c-1.683,2.559-2.1,5.747-1.132,8.653c0.858,2.577,21.48,63.291,61.764,77.768    c5.861,2.107,11.793,3.158,17.778,3.158c8.858,0,17.829-2.304,26.843-6.902c2.711,5.455,16.327,27.823,20.399,33.333    c-23.063-3.297-52.995,1.279-90.101,23.811c-2.606,1.583-4.348,4.268-4.73,7.292c-0.383,3.024,0.635,6.059,2.765,8.24    c2.175,2.229,51.474,52.14,100.178,52.14c2.441,0,4.884-0.126,7.316-0.39c19.669-2.128,35.997-12.667,48.579-31.339    c11.699,7.705,24.3,14.793,37.794,21.259c-11.361,3.749-23.238,7.145-35.626,10.185c-5.363,1.316-8.645,6.732-7.328,12.096    c1.12,4.564,5.206,7.618,9.704,7.618c0.789,0,1.591-0.094,2.392-0.29c20.572-5.049,39.832-11.054,57.762-18.001    c17.93,6.947,37.191,12.952,57.762,18.001c0.801,0.196,1.603,0.29,2.392,0.29c4.498,0,8.584-3.056,9.704-7.618    c1.316-5.364-1.965-10.779-7.328-12.096c-12.388-3.04-24.265-6.437-35.626-10.185c13.494-6.466,26.096-13.554,37.794-21.259    c12.582,18.672,28.91,29.21,48.579,31.339c2.436,0.264,4.872,0.39,7.316,0.39c48.701,0,98.002-49.91,100.178-52.14    c2.13-2.182,3.147-5.216,2.765-8.24c-0.383-3.024-2.125-5.709-4.73-7.292c-37.106-22.532-67.037-27.108-90.101-23.811    c4.068-5.51,17.685-27.878,20.396-33.333C414.117,329.173,423.086,331.477,431.945,331.477z M472.324,139.355    c-1.19,17.828-5.866,43.316-19.582,55.894c-5.938,5.445-13.165,8.142-21.96,8.163C429.157,190.136,430.58,159.452,472.324,139.355    z M429.857,276.147c14.039-11.823,32.274-19.422,57.283-19.422c0.139,0,0.276,0,0.416,0.001    c-8.268,18.448-24.168,45.43-44.596,52.771c-9.24,3.322-18.735,2.407-28.898-2.806    C414.329,304.872,420.425,284.09,429.857,276.147z M405.282,123.749c-0.076,0.04-0.152,0.081-0.227,0.122    c-6.227-2.598-16.177-8.182-23.03-19.076c-7.181-11.415-9.569-26.175-7.142-43.998c13.809,9.497,31.969,25.354,35.075,42.047    C411.287,109.99,409.756,116.876,405.282,123.749z M81.223,203.412c-8.796-0.021-16.026-2.717-21.965-8.163    c-13.716-12.577-18.392-38.066-19.582-55.894C81.452,159.468,82.846,190.179,81.223,203.412z M69.068,309.506    c-20.369-7.301-36.304-34.31-44.604-52.78c0.131-0.001,0.265-0.001,0.396-0.001c25.006,0,44.239,6.511,57.283,19.422    c6.402,6.337,10.334,13.286,12.706,19.29c0.499,1.483,2.822,9.434,3.09,11.254C87.788,311.899,78.3,312.816,69.068,309.506z     M102.042,102.844c3.106-16.692,21.266-32.55,35.075-42.047c2.409,17.694,0.073,32.371-6.988,43.752    c-6.871,11.075-16.965,16.727-23.238,19.339c-0.043-0.024-0.085-0.047-0.129-0.07    C102.254,116.922,100.708,110.013,102.042,102.844z M104.388,232.753c4.294-22.06,30.858-41.178,48.585-51.666    c2.536,23.759-1.265,43.077-11.348,57.558c-9.904,14.222-23.864,20.514-31.581,23.05    C106.744,256.486,102.167,244.165,104.388,232.753z M140.603,429.114c-30.281,3.281-64.88-22.642-81.357-36.894    c29.097-15.178,54.804-17.939,77.599-11.598c18.427,5.126,34.341,24.614,36.46,27.892    C164.343,420.944,153.602,427.698,140.603,429.114z M162.511,368.351c-0.431-0.409-12.636-12.228-13.172-28.041    c-0.862-25.448,22.843-52.357,36.689-66.111c8.71,23.499,9.824,44.207,3.29,61.695    C182.761,353.444,169.765,363.735,162.511,368.351z M256.017,425.888C248.872,418.674,238,405.343,238,391.032    c0-14.413,10.854-27.693,17.999-34.874c7.15,7.186,18,20.463,18,34.874C273.999,405.433,263.162,418.704,256.017,425.888z     M322.682,335.895c-6.534-17.488-5.42-38.196,3.29-61.695c13.847,13.754,37.053,40.65,36.689,66.111    c-0.136,9.489-3.64,17.899-10.666,25.503c-0.418,0.44-0.837,0.88-1.26,1.317c-0.405,0.409-0.819,0.815-1.245,1.219    C342.219,363.723,329.234,353.434,322.682,335.895z M452.825,392.257c-18.783,16.24-53.033,39.936-81.396,36.859    c-13.014-1.408-23.763-8.162-32.733-20.603c2.119-3.278,20.305-22.641,36.46-27.892    C397.676,373.302,423.699,377.049,452.825,392.257z M370.549,238.893c-10.214-14.507-14.073-33.911-11.522-57.808    c17.727,10.489,43.052,29.885,48.585,51.667c2.221,8.746-2.368,23.762-5.68,28.98C394.293,259.263,380.553,253.1,370.549,238.893z    " fill="#ffc600" data-original="#000000" style=""/>
	</g>
</g>
<g xmlns="http://www.w3.org/2000/svg">
</g>
<g xmlns="http://www.w3.org/2000/svg">
</g>
<g xmlns="http://www.w3.org/2000/svg">
</g>
<g xmlns="http://www.w3.org/2000/svg">
</g>
<g xmlns="http://www.w3.org/2000/svg">
</g>
<g xmlns="http://www.w3.org/2000/svg">
</g>
<g xmlns="http://www.w3.org/2000/svg">
</g>
<g xmlns="http://www.w3.org/2000/svg">
</g>
<g xmlns="http://www.w3.org/2000/svg">
</g>
<g xmlns="http://www.w3.org/2000/svg">
</g>
<g xmlns="http://www.w3.org/2000/svg">
</g>
<g xmlns="http://www.w3.org/2000/svg">
</g>
<g xmlns="http://www.w3.org/2000/svg">
</g>
<g xmlns="http://www.w3.org/2000/svg">
</g>
<g xmlns="http://www.w3.org/2000/svg">
</g>
</g></svg>
