<?xml version="1.0"?>
<svg xmlns="http://www.w3.org/2000/svg" xmlns:xlink="http://www.w3.org/1999/xlink" xmlns:svgjs="http://svgjs.com/svgjs" version="1.1" width="71" height="61" x="0" y="0" viewBox="0 0 511.708 511.708" style="enable-background:new 0 0 512 512" xml:space="preserve" class=""><g><g xmlns="http://www.w3.org/2000/svg"><path d="m22.179 487.746h-14.733c-9.738.276-10.116 14.572 0 15h496.762c4.142 0 7.5-3.358 7.5-7.5s-3.358-7.5-7.5-7.5h-12.638c-.079-1.116.257-302.916.026-303.919-.631-27.332-13.902-47.933-32.714-52.269v-26.296c0-4.142-3.358-7.5-7.5-7.5s-7.5 3.358-7.5 7.5v26.307c-18.664 4.361-31.822 24.95-32.44 52.257-.047.338-.079.68-.079 1.031v87.848h-32.764v-35.102c0-.27-.016-.535-.043-.798-.486-78.418-63.125-127.705-114.213-144.314v-24.236c8.654.062 17.302-3.209 23.884-9.775 6.78-7.261-3.33-17.385-10.599-10.614-11.526 11.568-31.644 3.287-31.583-13.049 0-4.928 1.922-9.562 5.414-13.048 2.931-2.927 2.935-7.676.008-10.607-2.928-2.932-7.676-2.934-10.607-.008-6.33 6.32-9.815 14.724-9.815 23.664-.148 12.385 7.263 24.326 18.297 29.81v27.538c-22.28 7.141-42.403 18.348-59.875 33.369-3.141 2.7-3.498 7.436-.797 10.577s7.436 3.499 10.577.797c16.58-14.255 35.797-24.757 57.146-31.236 44.111 13.266 101.926 54.195 107.012 124.431h-213.263c1.916-25.298 12.028-50.641 28.905-72.112 2.56-3.257 1.995-7.972-1.262-10.531-3.256-2.56-7.972-1.996-10.531 1.262-20.415 25.974-31.908 57.189-32.423 87.987-.035.294-.058.591-.058.895v35.102h-32.177v-87.848c0-.35-.032-.693-.079-1.03-.63-27.331-13.901-47.933-32.714-52.269v-26.296c0-4.142-3.358-7.5-7.5-7.5s-7.5 3.358-7.5 7.5v26.307c-18.665 4.361-31.822 24.952-32.44 52.261-.23.505-.104 303.193-.184 303.914zm404.184-207.521c0-.006 0-87.85 0-87.867h50.312v158.452h-50.312zm25.019-134.527c12.466 0 22.382 13.168 24.719 31.66h-49.19c2.25-18.732 11.911-31.66 24.471-31.66zm-348.786 142.008h32.177v200.041h-32.282zm-65.312-95.348h50.312v158.453h-50.312zm25.019-46.66c12.467 0 22.382 13.167 24.719 31.66h-49.19c2.249-18.732 11.911-31.66 24.471-31.66zm-25.124 342.048v-121.936h50.312v121.936zm173.576 0v-103.432c0-25.305 20.586-45.891 45.972-45.891 25.304 0 45.891 20.586 45.891 45.891v103.432zm200.504 0h-32.66v-90.912c0-4.142-3.358-7.5-7.5-7.5s-7.5 3.358-7.5 7.5v90.912h-45.981v-103.432c0-33.576-27.315-60.891-60.972-60.891-33.576 0-60.891 27.315-60.891 60.891v103.432h-45.982v-242.642h213.826v121.213c.329 9.899 14.65 9.952 15 0v-78.611h32.764zm15 0v-121.936h50.312v121.936z" fill="#ffc600" data-original="#000000" style="" class=""/></g></g></svg>
