<?xml version="1.0"?>
<svg xmlns="http://www.w3.org/2000/svg" xmlns:xlink="http://www.w3.org/1999/xlink" xmlns:svgjs="http://svgjs.com/svgjs" version="1.1" width="71" height="61" x="0" y="0" viewBox="0 0 512 512" style="enable-background:new 0 0 512 512" xml:space="preserve" class=""><g><g xmlns="http://www.w3.org/2000/svg"><path d="m128.321 185.667h255.359v44.667h-255.359z" fill="#ffc600" data-original="#000000" style="" class=""/><path d="m382.77 155.667c-5.846-53.315-39.474-100.464-88.988-122.97l-22.782-10.355v-22.342h-30v22.341l-22.782 10.355c-49.513 22.506-83.141 69.655-88.987 122.97h253.539z" fill="#ffc600" data-original="#000000" style="" class=""/><path d="m0 377.667h78.825v134.333h-78.825z" fill="#ffc600" data-original="#000000" style="" class=""/><path d="m433.176 377.667h78.824v134.333h-78.824z" fill="#ffc600" data-original="#000000" style="" class=""/><path d="m0 298.667h78.825v49h-78.825z" fill="#ffc600" data-original="#000000" style="" class=""/><path d="m433.176 298.667h78.824v49h-78.824z" fill="#ffc600" data-original="#000000" style="" class=""/><path d="m403.176 260.334h-294.351v251.666h64.538v-106.666c0-49.111 31.221-95.083 82.638-109.654 49.833 12.32 82.638 60.543 82.638 109.654v106.666h64.538v-251.666z" fill="#ffc600" data-original="#000000" style="" class=""/><path d="m308.638 405.334c0-34.484-20.953-65.167-52.638-77.873-31.685 12.705-52.638 43.388-52.638 77.873v106.666h105.275v-106.666z" fill="#ffc600" data-original="#000000" style="" class=""/></g></g></svg>
